<?xml version="1.0" encoding="UTF-8" standalone="no"?>
<svg xmlns:dc="http://purl.org/dc/elements/1.1/" xmlns:cc="http://creativecommons.org/ns#" xmlns:rdf="http://www.w3.org/1999/02/22-rdf-syntax-ns#" xmlns:svg="http://www.w3.org/2000/svg" xmlns="http://www.w3.org/2000/svg" xmlns:sodipodi="http://sodipodi.sourceforge.net/DTD/sodipodi-0.dtd" xmlns:inkscape="http://www.inkscape.org/namespaces/inkscape" version="1.1" id="svg8" x="0px" y="0px" viewBox="0 0 1000 920" style="enable-background:new 0 0 1000 920;" xml:space="preserve" sodipodi:docname="DualSense.svg" inkscape:version="1.0.2 (e86c870879, 2021-01-15, custom)"><path id="RightTrigger" inkscape:label="Right Trigger" sodipodi:nodetypes="ccccc" class="st7" d="M 835.78264,194.34691 C 806.86686,170.87927 738.45378,157.87997 718.6928,174.02552 l 2.18984,-50.17861 c 1.1,-14.3 10.4,-54.5 45.2,-44.8 46.4,24.4 69.7,115.3 69.7,115.3 z" style="fill:none;stroke:#ffffff;stroke-width:4;stroke-linecap:round;stroke-miterlimit:15.1181"/><metadata id="metadata1131"><rdf:RDF><cc:Work rdf:about=""><dc:format>image/svg+xml</dc:format><dc:type rdf:resource="http://purl.org/dc/dcmitype/StillImage"/><dc:title/></cc:Work></rdf:RDF></metadata>
<style type="text/css" id="style892">
	.st0{fill:none;stroke:#FFFFFF;stroke-width:4;stroke-linecap:round;stroke-linejoin:round;stroke-miterlimit:15.1181;}
	.st1{fill:none;stroke:#FFFFFF;stroke-width:4;stroke-miterlimit:15.1181;}
	.st2{fill:none;stroke:#FFFFFF;stroke-width:3;stroke-linecap:round;stroke-miterlimit:15.1181;}
	.st3{fill:none;stroke:#FFFFFF;stroke-width:3;stroke-linecap:round;stroke-linejoin:round;stroke-miterlimit:15.1181;}
	.st4{fill:none;stroke:#FFFFFF;stroke-width:4;stroke-linejoin:bevel;stroke-miterlimit:15.1181;}
	.st5{enable-background:new    ;}
	.st6{fill:#FFFFFF;}
	.st7{fill:none;stroke:#FFFFFF;stroke-width:4;stroke-linecap:round;stroke-miterlimit:15.1181;}
	.st8{fill:none;stroke:#FF0000;stroke-linecap:round;stroke-miterlimit:15.1181;}
	.st9{fill:none;stroke:#FFFFFF;stroke-width:3;stroke-miterlimit:10;}
	.st10{fill:#FAFCFF;stroke:#FFFFFF;stroke-width:0.5;stroke-miterlimit:10;}
	.st11{fill:#808285;stroke:#FFFFFF;stroke-miterlimit:10;}
	.st12{fill:none;stroke:#FFFFFF;stroke-width:2;stroke-miterlimit:10;}
	.st13{fill:#FFFFFF;stroke:#FFFFFF;stroke-miterlimit:10;}
	.st14{fill:none;stroke:#FFFFFF;stroke-miterlimit:10;}
	.st15{fill:none;stroke:#231F20;stroke-width:3;stroke-miterlimit:10;}
</style>
<defs id="defs899">
	
		<inkscape:path-effect apply_no_radius="true" apply_with_radius="true" chamfer_steps="1" effect="fillet_chamfer" flexible="false" hide_knots="false" id="path-effect1034" is_visible="true" lpeversion="1" method="auto" mode="F" only_selected="false" radius="3" satellites_param="F,0,0,1,0,3,0,1 @ F,0,0,1,0,3,0,1 @ F,0,0,1,0,3,0,1 @ F,0,0,1,0,3,0,1" unit="px" use_knot_distance="true">
		</inkscape:path-effect>
	
		<inkscape:path-effect apply_no_radius="true" apply_with_radius="true" chamfer_steps="1" effect="fillet_chamfer" flexible="false" hide_knots="false" id="path-effect1032" is_visible="true" lpeversion="1" method="auto" mode="F" only_selected="false" radius="3" satellites_param="F,0,0,1,0,3,0,1 @ F,0,0,1,0,3,0,1 @ F,0,0,1,0,3,0,1 @ F,0,0,1,0,3,0,1" unit="px" use_knot_distance="true">
		</inkscape:path-effect>
	
		<inkscape:path-effect apply_no_radius="true" apply_with_radius="true" chamfer_steps="1" effect="fillet_chamfer" flexible="false" hide_knots="false" id="path-effect1003" is_visible="true" lpeversion="1" method="auto" mode="F" only_selected="false" radius="3" satellites_param="F,0,0,1,0,3,0,1 @ F,0,0,1,0,3,0,1 @ F,0,0,1,0,3,0,1 @ F,0,0,1,0,3,0,1" unit="px" use_knot_distance="true">
		</inkscape:path-effect>
	
		<inkscape:path-effect apply_no_radius="true" apply_with_radius="true" chamfer_steps="1" effect="fillet_chamfer" flexible="false" hide_knots="false" id="path-effect980" is_visible="true" lpeversion="1" method="auto" mode="F" only_selected="false" radius="3" satellites_param="F,0,0,1,0,3,0,1 @ F,0,0,1,0,3,0,1 @ F,0,0,1,0,3,0,1 @ F,0,0,1,0,3,0,1" unit="px" use_knot_distance="true">
		</inkscape:path-effect>
	
		<inkscape:path-effect apply_no_radius="true" apply_with_radius="true" chamfer_steps="1" effect="fillet_chamfer" flexible="false" hide_knots="false" id="path-effect977" is_visible="true" lpeversion="1" method="auto" mode="F" only_selected="false" radius="0" satellites_param="F,0,0,1,0,0,0,1 @ F,0,0,1,0,0,0,1 @ F,0,0,1,0,0,0,1 @ F,0,0,1,0,0,0,1" unit="px" use_knot_distance="true">
		</inkscape:path-effect>
</defs>
<sodipodi:namedview bordercolor="#666666" borderopacity="1.0" id="base" inkscape:current-layer="svg8" inkscape:cx="637.62285" inkscape:cy="277.12733" inkscape:document-rotation="0" inkscape:document-units="px" inkscape:pageopacity="1" inkscape:pageshadow="2" inkscape:snap-object-midpoints="true" inkscape:window-height="2080" inkscape:window-maximized="1" inkscape:window-width="3840" inkscape:window-x="-11" inkscape:window-y="-11" inkscape:zoom="10.418173" pagecolor="#808080" showgrid="false" units="px">
	<inkscape:grid id="grid1372" type="xygrid"/>
</sodipodi:namedview>


<g id="g966" transform="translate(0,834)">
	<path class="st6" d="m 517.3,-328.7 h -32.9 c -1.7,0 -3.2,1.4 -3.2,3.2 0,1.8 1.4,3.2 3.2,3.2 h 32.9 c 1.7,0 3.2,-1.4 3.2,-3.2 -0.1,-1.7 -1.5,-3.2 -3.2,-3.2 z" id="path964"/>
</g>
<g id="g974" transform="translate(0,834)">
	<rect x="703.59998" y="-627.70001" class="st10" width="12.2" height="1.1" id="rect968"/>
	<rect x="703.59998" y="-623.20001" class="st10" width="12.2" height="1.1" id="rect970"/>
	<rect x="703.59998" y="-618.70001" class="st10" width="12.2" height="1.1" id="rect972"/>
</g>
<g id="g982" transform="translate(0,834)">
	
		<rect x="287.79999" y="-624" transform="rotate(90,291.9558,-623.3588)" class="st11" width="8.3000002" height="1.3" id="rect976"/>
	<polygon class="st11" points="300,-623.5 297,-618.1 295.8,-618.7 298.9,-624.1 " id="polygon978"/>
	<polygon class="st11" points="284.1,-623.5 287.2,-618.1 288.3,-618.7 285.2,-624.1 " id="polygon980"/>
</g>



<path class="st12" d="m 297.7,264.1 c -5,0 -9.4,-3.5 -10.5,-8.6 l -4.4,-21.2 c -0.6,-2.8 0,-5.7 1.5,-8.1 1.6,-2.4 4,-4.1 6.8,-4.6 2.8,-0.6 5.6,0 8,1.5 2.4,1.6 4,4 4.6,6.8 l 4.4,21.2 c 1.2,5.8 -2.5,11.5 -8.3,12.7 -0.6,0.2 -1.3,0.3 -2.1,0.3 z" id="ButtonBack" inkscape:label="ButtonBack" style="fill:none;stroke:#ffffff;stroke-width:2;stroke-miterlimit:10"/>
<ellipse class="st14" cx="359" cy="460.29999" rx="33.5" ry="33.799999" id="LeftStickCore" inkscape:label="LeftStickCore"/>
<ellipse class="st14" cx="359" cy="460.29999" rx="55.599998" ry="56.099998" id="ellipse1042"/>
<ellipse class="st12" cx="359" cy="460.29999" rx="64.400002" ry="65" id="ellipse1044"/>
<ellipse class="st14" cx="640.90002" cy="460.29999" rx="33.5" ry="33.799999" id="RightStickCore" inkscape:label="RightStickCore"/>
<ellipse class="st14" cx="640.90002" cy="460.29999" rx="55.599998" ry="56.099998" id="ellipse1048"/>
<ellipse class="st12" cx="640.90002" cy="460.29999" rx="64.400002" ry="65" id="ellipse1050"/>
<path class="st9" d="m 673.7,204.7 c -1.8,-12 -6.3,-15.9 -11.5,-17.7 -5.2,-1.8 -47.2,-9.2 -161,-9.2 -113.8,0 -155.9,7.4 -161,9.2 -5.2,1.8 -9.7,5.7 -11.5,17.7 -1.8,12 14.6,80.8 23.5,124 9,43.2 50,41.1 50,41.1 h 98.9 98.9 c 0,0 41,2.1 50,-41.1 9.1,-43.3 25.5,-112 23.7,-124 z" id="path1052" style="display:inline"/>

<path class="st9" d="m 684.7,231.7 c 3.8,-20.4 14.3,-44 41.6,-40.2 27.5,3.8 115,18.2 123.5,24.9 8.5,6.7 57,116.3 81.2,254.1 24.2,137.8 7.4,208.9 -8.9,241.2 -16.8,33.3 -54.6,56.7 -67.4,17.9 -11.3,-34.3 -31.4,-99.6 -59.9,-167.5 -28.4,-67.9 -66,-126.3 -98.9,-166.3 -32.9,-40 -32.4,-57.1 -26.9,-85 5.7,-27.8 13.3,-66.4 15.7,-79.1 z" id="path1056" style="display:inline"/>
<path class="st9" d="m 319.9,231.7 c -3.9,-20.4 -14.4,-44 -41.9,-40.2 -27.7,3.8 -115.8,18.2 -124.4,24.9 -8.6,6.7 -57.4,116.3 -81.8,254.1 -24.4,137.8 -7.5,208.9 9,241.2 16.9,33.3 55,56.7 67.8,17.9 11.4,-34.3 31.7,-99.6 60.3,-167.5 28.6,-67.9 66.4,-126.3 99.5,-166.3 33.1,-40 32.6,-57.1 27.1,-85 -5.4,-27.8 -13.2,-66.4 -15.6,-79.1 z" id="path1058" style="display:inline"/>
<g id="g1062" transform="translate(0,834)" style="display:inline">
	<path class="st6" d="m 747.8,-663.9 c 11.7,0 24.7,1 33.4,2.6 15.2,2.8 51.7,16.4 53.3,23.7 0.4,2 1.9,14.8 1.9,14.8 v 0 c 7.1,1.8 12.2,3.5 13.9,4.9 8.6,6.7 57.8,116.3 82.4,254.1 24.6,137.8 7.5,208.9 -9.1,241.2 -10.8,21 -30,38.1 -46,38.1 -2.1,0 -4.1,-0.3 -6.1,-0.9 0.5,0.2 1.1,0.3 1.6,0.4 v 0 c 0,0 -36.7,6.5 -45.6,7.8 v 0.2 c 0,0 -0.8,1.8 -3.6,1.8 -2.8,0 -4.9,-2.7 -7.2,-5.9 -2.3,-3.1 -9,-13.6 -17,-32 -17,-39.3 -37.7,-103.7 -56.7,-137.2 -3.3,-5.8 -14.5,-20.4 -28,-27.3 1.7,0.9 3.6,1.8 5.5,2.9 -14,-7.9 -23.2,-10.3 -31.4,-10.3 -12.4,0 -22.5,5.4 -43.5,5.4 h -139.4 -2.7 -0.1 -1.7 -0.1 -2.7 -139.4 c -21,0 -31.1,-5.4 -43.5,-5.4 -8.2,0 -17.4,2.4 -31.4,10.3 1.9,-1.1 3.7,-2 5.5,-2.9 -13.5,6.9 -24.7,21.4 -28,27.3 -19,33.5 -39.7,97.9 -56.7,137.2 -8,18.4 -14.7,28.9 -17,32 -2.3,3.1 -4.4,5.9 -7.2,5.9 -2.8,0 -3.6,-1.8 -3.6,-1.8 v -0.2 C 168.7,-78.5 132,-85 132,-85 v 0 c 0.5,-0.1 1.1,-0.3 1.6,-0.4 -2,0.6 -4,0.9 -6.1,0.9 -16,0 -35.2,-17.1 -46,-38.1 C 64.8,-155 47.8,-226 72.4,-363.9 97,-501.7 146.1,-611.2 154.8,-618 c 1.7,-1.4 6.8,-3 13.9,-4.9 v 0 c 0,0 1.4,-12.8 1.9,-14.8 1.6,-7.3 38.1,-20.8 53.3,-23.7 8.7,-1.6 21.7,-2.6 33.4,-2.6 13.1,0 24.6,1.2 26.6,4.2 1.3,1.9 2.9,16.4 2.9,16.4 v 0 c 4.3,0.1 8.2,0.9 11.6,2.4 2.9,-1 8.2,-2.4 18.1,-3.9 7.1,-1.1 15.3,-2.2 23.3,-3.2 10.5,-2.4 55.2,-8.7 162,-8.7 0.3,0 0.6,0 0.9,0 0.3,0 0.6,0 0.9,0 106.8,0 151.5,6.3 162,8.7 8,1 16.2,2.1 23.3,3.2 9.9,1.5 15.2,2.9 18.1,3.9 3.4,-1.4 7.3,-2.3 11.6,-2.4 v 0 c 0,0 1.6,-14.5 2.9,-16.4 1.7,-2.8 13.2,-4.1 26.3,-4.1 M 714.1,-278 c 0.3,0.1 0.6,0.3 0.9,0.4 -0.3,-0.1 -0.6,-0.3 -0.9,-0.4 m -423.2,0 c -0.3,0.1 -0.6,0.3 -0.8,0.4 0.2,-0.1 0.5,-0.3 0.8,-0.4 m 456.9,-389.9 c -25.9,0 -28.8,4.3 -29.9,5.9 -0.4,0.6 -1.6,2.4 -3.2,14.9 -2.8,0.3 -5.5,0.9 -8.1,1.9 -3.9,-1.2 -9.8,-2.4 -17.4,-3.6 -6.3,-1 -14.1,-2 -23.2,-3.2 -4.9,-1.1 -43.8,-8.8 -162.7,-8.8 h -0.5 -0.4 -0.4 -0.5 c -118.9,0 -157.8,7.7 -162.7,8.8 -9.1,1.1 -16.9,2.2 -23.2,3.2 -7.6,1.2 -13.5,2.4 -17.4,3.6 -2.6,-0.9 -5.3,-1.6 -8.1,-1.9 -1.5,-12.5 -2.7,-14.3 -3.2,-14.9 -1.1,-1.6 -4,-5.9 -29.9,-5.9 -12.2,0 -25.3,1 -34.1,2.7 -8,1.5 -21.3,5.8 -32.5,10.4 -22.4,9.3 -23.5,14.4 -23.9,16.3 -0.4,1.6 -1.2,8.4 -1.6,12.5 -8.7,2.4 -11.4,3.8 -12.7,4.9 -6.1,4.8 -21.8,39 -36.5,79.7 -14.2,39.3 -34,101.9 -47.3,176.9 -25.9,145.5 -5.2,215.1 9.5,243.7 5.6,10.8 13.4,20.8 22,28.1 9.4,7.9 18.9,12.1 27.5,12.1 1.5,0 3,-0.1 4.5,-0.4 4.9,0.9 33,5.8 43.3,7.4 1.3,1.3 3.2,2.3 5.9,2.3 4.8,0 7.8,-4 10.4,-7.5 0.8,-1.1 8,-11 17.5,-32.8 6.3,-14.6 13.1,-32.4 20.2,-51.2 12,-31.8 24.5,-64.7 36.3,-85.6 3.2,-5.6 13.8,-19.3 26.4,-25.7 0.3,-0.1 0.5,-0.3 0.8,-0.4 v 0 c 9.1,-4.5 16.3,-6.5 23.3,-6.5 5,0 9.7,1 15.1,2.1 7.5,1.6 16.1,3.3 28.4,3.3 h 139.4 2.7 0.1 1.7 0.1 2.7 139.4 c 12.3,0 20.8,-1.8 28.4,-3.3 5.4,-1.1 10.2,-2.1 15.1,-2.1 7,0 14.2,2 23.3,6.5 v 0 c 0.3,0.1 0.5,0.3 0.8,0.4 12.5,6.4 23.2,20.1 26.4,25.7 11.8,20.8 24.3,53.7 36.3,85.6 7.1,18.8 13.9,36.6 20.2,51.2 9.5,21.8 16.7,31.7 17.5,32.8 2.6,3.5 5.6,7.5 10.4,7.5 2.7,0 4.7,-1 5.9,-2.3 10.3,-1.6 38.3,-6.5 43.3,-7.4 1.5,0.3 3,0.4 4.5,0.4 8.6,0 18.2,-4.2 27.5,-12.1 8.6,-7.3 16.4,-17.3 22,-28.1 14.7,-28.6 35.4,-98.2 9.5,-243.8 -13.4,-75 -33.1,-137.6 -47.3,-176.9 -14.7,-40.7 -30.4,-74.9 -36.5,-79.7 -1.3,-1 -4,-2.5 -12.7,-4.9 -0.1,-1.1 -0.3,-2.5 -0.5,-3.9 -0.8,-7.1 -1.1,-8.1 -1.2,-8.5 -0.4,-1.9 -1.6,-7 -23.9,-16.3 -11.2,-4.6 -24.6,-8.9 -32.5,-10.4 -9,-1.6 -22,-2.7 -34.3,-2.7 z" id="path1060" style="display:inline"/>
</g>
<g id="g1086" transform="translate(0,834)">
	<g id="g1082">
		<circle class="st14" cx="469" cy="-438.20001" id="ellipse1064" r="4.9000001"/>
		<circle class="st14" cx="484.89999" cy="-438.20001" id="ellipse1066" r="4.9000001"/>
		<circle class="st14" cx="500.89999" cy="-438.20001" id="ellipse1068" r="4.9000001"/>
		<circle class="st14" cx="516.79999" cy="-438.20001" id="ellipse1070" r="4.9000001"/>
		<circle class="st14" cx="477.10001" cy="-424.20001" id="ellipse1072" r="4.9000001"/>
		<circle class="st14" cx="493" cy="-424.20001" id="ellipse1074" r="4.9000001"/>
		<circle class="st14" cx="508.89999" cy="-424.20001" id="ellipse1076" r="4.9000001"/>
		<circle class="st14" cx="524.79999" cy="-424.20001" id="ellipse1078" r="4.9000001"/>
		<circle class="st14" cx="532.70001" cy="-438.20001" id="ellipse1080" r="4.9000001"/>
	</g>
	<path class="st6" d="m 530.5,-371.8 c -0.9,-1.9 -2.6,-3.5 -5.7,-4.5 -2.5,-0.9 -5.6,-1.4 -5.6,-1.4 -1,-0.2 -1.5,-1.1 -1.1,-2 0,0 1,-2.4 1,-5.2 0,-8.3 -3.3,-12.7 -11.8,-15.7 -4.6,-1.6 -10.6,-3.1 -10.6,-3.1 -1,-0.2 -2.5,-0.6 -3.4,-0.8 -0.9,-0.2 -1.6,0.5 -1.6,1.5 v 21 c 0,1 -0.8,2.1 -1.7,2.5 l -9.1,3.1 c -1,0.3 -2.5,0.9 -3.4,1.3 l -2.1,1.1 c -0.9,0.5 -2.1,1.6 -2.8,2.4 0,0 -1.3,1.6 -1.1,3.4 1,6.1 12.3,7.3 16,7 l 14.6,4.8 c 1,0.3 2.5,0.3 3.5,-0.1 l 18,-7.1 c 0.9,-0.4 2.5,-1.1 3.4,-1.5 -0.5,0.1 5.4,-2.9 3.5,-6.7 z m -37.8,-0.2 -9.3,3.3 c -1.6,0.7 -1.9,1.5 -0.5,1.9 1.8,0.4 3.5,0.3 5.3,-0.3 l 4.6,-1.5 v 4.6 c -0.1,0 -0.4,0.1 -0.7,0.1 -4.7,0.8 -9.6,0.4 -14,-1.1 -4.3,-1.2 -5,-3.8 -3,-5.2 1.5,-1.1 3.1,-1.9 4.7,-2.4 l 13,-4.5 v 5.1 z m 12,-21.9 c -1.1,-0.4 -1.1,0.7 -1.1,2.2 v 33.1 l -9.4,-2.9 v -39.3 c 4,0.8 8.1,2 12,3.4 7.4,2.6 10,5.9 10,13.1 0,7.1 -4.3,9.8 -9.8,7.1 v -13.2 c -0.1,-1.6 -0.2,-3.1 -1.7,-3.5 z m 22.8,25.3 c -1.1,1.1 -2.3,1.8 -3.6,2.3 l -18.6,6.9 v -5.2 l 13.5,-5 c 1.6,-0.7 1.9,-1.5 0.5,-1.9 -1.8,-0.4 -3.5,-0.3 -5.3,0.3 l -8.8,3.3 v -5.3 l 0.4,-0.1 c 1.9,-0.7 3.9,-1.2 6.1,-1.4 4,-0.4 8.2,0.1 12.1,1.5 4.3,1.3 4.7,3.2 3.7,4.6 z" id="path1084"/>
</g>
<path class="st12" d="m 703.9,264.1 c -0.7,0 -1.5,-0.1 -2.2,-0.2 -2.8,-0.6 -5.2,-2.2 -6.8,-4.6 -1.6,-2.4 -2.1,-5.3 -1.5,-8.1 l 4.4,-21.2 c 0.6,-2.8 2.2,-5.2 4.6,-6.8 2.4,-1.6 5.2,-2.1 8,-1.5 5.8,1.2 9.5,6.9 8.3,12.7 l -4.4,21.2 c -0.6,2.8 -2.2,5.2 -4.6,6.8 -1.7,1.1 -3.7,1.7 -5.8,1.7 z" id="ButtonStart" style="fill:none;stroke:#ffffff;stroke-width:2;stroke-miterlimit:10" inkscape:label="ButtonStart"/>
<path class="st12" d="M 284.2,311.6 H 284 l -22.3,1.7 c -2.2,0.2 -4.2,1 -5.9,2.3 -3.5,2.8 -11.6,11.5 -17.7,18.3 -1.4,1.5 -2.1,3.5 -2.1,5.6 0,2.1 0.7,4 2.1,5.6 6.1,6.8 14.2,15.5 17.7,18.3 1.7,1.4 3.7,2.2 5.9,2.3 l 22.3,1.7 h 0.2 0.2 c 17.4,-0.3 17.4,-19.6 17.4,-27.9 0,-8.3 0,-27.6 -17.4,-27.9 z" id="DPadRight" inkscape:label="DPadRight"/><path class="st12" d="m 169.5,311.6 h -0.2 c -17.4,0.3 -17.4,19.6 -17.4,27.9 0,8.3 0,27.6 17.4,27.9 h 0.2 0.2 l 22.3,-1.7 c 2.2,-0.2 4.2,-1 5.9,-2.3 3.5,-2.8 11.6,-11.5 17.7,-18.3 1.4,-1.5 2.1,-3.5 2.1,-5.6 0,-2.1 -0.7,-4 -2.1,-5.6 -6.1,-6.8 -14.2,-15.5 -17.7,-18.3 -1.7,-1.4 -3.7,-2.2 -5.9,-2.3 l -22.3,-1.7 z" id="DPadLeft" inkscape:label="DPadLeft"/><path class="st12" d="m 227,348.7 v 0 h -0.1 -0.1 c -2,0 -3.9,0.7 -5.4,2.1 -6.7,6.2 -15.3,14.3 -18.1,17.9 -1.4,1.7 -2.2,3.8 -2.3,6 l -1.7,22.5 v 0.2 0.2 c 0.3,17.6 19.5,17.6 27.7,17.6 8.2,0 27.3,0 27.7,-17.6 v -0.2 -0.2 L 253,374.7 c -0.2,-2.2 -1,-4.3 -2.3,-6 -2.8,-3.6 -11.4,-11.7 -18.1,-17.9 -1.7,-1.3 -3.6,-2.1 -5.6,-2.1 z" id="DPadDown" inkscape:label="DPadDown"/><path class="st12" d="m 226.9,263.9 c -8.2,0 -27.3,0 -27.7,17.6 v 0.2 0.2 l 1.7,22.5 c 0.2,2.2 1,4.3 2.3,6 2.8,3.6 11.4,11.7 18.1,17.9 1.5,1.4 3.4,2.1 5.4,2.1 h 0.1 0.1 c 2,0 3.9,-0.7 5.4,-2.1 6.7,-6.2 15.3,-14.3 18.1,-17.9 1.4,-1.7 2.2,-3.8 2.3,-6 l 1.7,-22.5 v -0.2 -0.2 C 254.2,263.9 235,263.9 226.9,263.9 Z" id="DPadUp" inkscape:label="DPadUp"/>
<path class="st12" d="m 775.4,246.3 c -15.1,0 -27.5,12.4 -27.5,27.7 0,15.3 12.3,27.7 27.5,27.7 15.2,0 27.5,-12.4 27.5,-27.7 -0.1,-15.3 -12.4,-27.7 -27.5,-27.7 z" id="ButtonY" inkscape:label="ButtonY"/><path class="st12" d="m 710.6,311.8 c -15.1,0 -27.5,12.4 -27.5,27.7 0,15.3 12.3,27.7 27.5,27.7 15.2,0 27.5,-12.4 27.5,-27.7 -0.1,-15.3 -12.4,-27.7 -27.5,-27.7 z" id="ButtonX" inkscape:label="ButtonX"/><path class="st12" d="m 839.4,311.8 c -15.1,0 -27.5,12.4 -27.5,27.7 0,15.3 12.3,27.7 27.5,27.7 15.2,0 27.5,-12.4 27.5,-27.7 0,-15.3 -12.3,-27.7 -27.5,-27.7 z" id="ButtonB" inkscape:label="ButtonB"/><path class="st12" d="m 775.4,377 c -15.1,0 -27.5,12.4 -27.5,27.7 0,15.3 12.3,27.7 27.5,27.7 15.2,0 27.5,-12.4 27.5,-27.7 C 802.8,389.5 790.5,377 775.4,377 Z" id="ButtonA" inkscape:label="ButtonA"/><g id="g1034" transform="translate(0,834)">
	<g id="g1022">
		<path class="st12" d="m 697.8,-481.7 h 25 v -25.2 h -25 z" id="path1020"/>
	</g>
	<g id="g1026">
		<path class="st12" d="m 761.1,-551.3 h 28.5 l -14.2,-24.8 z" id="path1024"/>
	</g>
	<g id="g1030">
		<path class="st12" d="m 840,-510.8 c -8.9,0 -16.2,7.3 -16.2,16.3 0,9 7.3,16.3 16.2,16.3 8.9,0 16.2,-7.3 16.2,-16.3 0,-9 -7.3,-16.3 -16.2,-16.3 z" id="path1028"/>
	</g>
	<polygon class="st13" points="775,-426.3 787.9,-413.3 789.8,-415.3 776.9,-428.3 789.8,-441.3 787.9,-443.3 775,-430.3 762.1,-443.3 760.1,-441.3 773,-428.3 760.1,-415.3 762.1,-413.3 " id="polygon1032"/>
</g>
<path id="LeftTrigger" inkscape:label="Left Trigger" sodipodi:nodetypes="ccccc" class="st7" d="m 169.13503,194.34679 c 28.91578,-23.46764 97.32886,-36.46694 117.08984,-20.32139 l -2.18984,-50.17861 c -1.1,-14.3 -10.4,-54.500004 -45.2,-44.800004 -46.4,24.400004 -69.7,115.300004 -69.7,115.300004 z"/>

<path style="fill:none;stroke:#ffffff;stroke-width:3;stroke-linecap:butt;stroke-linejoin:round;stroke-miterlimit:4;stroke-dasharray:none;stroke-opacity:1" d="m 166.32313,211.86627 c 59.10104,-14.41722 109.13165,-20.90974 122.49861,-20.52783 0,0 0.0179,-9.21746 -2.59687,-17.31304 -30.017,-21.46254 -107.25558,9.15043 -117.08984,20.32139 z" id="ButtonLB" sodipodi:nodetypes="ccccc" inkscape:label="ButtonLB"/><path style="fill:none;stroke:#ffffff;stroke-width:3;stroke-linecap:butt;stroke-linejoin:round;stroke-miterlimit:4;stroke-dasharray:none;stroke-opacity:1" d="M 839.09861,211.12783 C 779.99757,196.71061 729.96696,190.21809 716.6,190.6 c 0,0 -0.0179,-9.21746 2.59687,-17.31304 30.017,-21.46254 107.25558,9.15043 117.08984,20.32139 z" id="ButtonRB" sodipodi:nodetypes="ccccc" inkscape:label="ButtonRB"/><path style="fill:none;stroke:#ff0000;stroke-width:1;stroke-linecap:butt;stroke-linejoin:round;stroke-miterlimit:4;stroke-dasharray:none;stroke-opacity:1" d="M 856.6097,191.30908 C 744.50449,-66.990107 684.85972,127.40273 705.46892,158.8357 c 0,0 11.11318,22.54684 13.72795,14.45126 30.017,-21.46254 107.25558,9.15043 117.08984,20.32139 z" id="RightTriggerClip" sodipodi:nodetypes="ccccc" inkscape:label="RightTriggerClip"/><path style="fill:none;stroke:#ff0000;stroke-width:1;stroke-linecap:butt;stroke-linejoin:round;stroke-miterlimit:4;stroke-dasharray:none;stroke-opacity:1" d="m 148.81204,192.04752 c 112.1052,-258.29919 171.74997,-63.90635 151.14078,-32.47338 0,0 -11.11319,22.54684 -13.72795,14.45126 -30.01701,-21.46254 -107.25558,9.15043 -117.08984,20.32139 z" id="LeftTriggerClip" sodipodi:nodetypes="ccccc" inkscape:label="LeftTriggerClip"/></svg>