<?xml version="1.0" encoding="UTF-8" standalone="no"?>
<svg
   xmlns:dc="http://purl.org/dc/elements/1.1/"
   xmlns:cc="http://creativecommons.org/ns#"
   xmlns:rdf="http://www.w3.org/1999/02/22-rdf-syntax-ns#"
   xmlns:svg="http://www.w3.org/2000/svg"
   xmlns="http://www.w3.org/2000/svg"
   xmlns:sodipodi="http://sodipodi.sourceforge.net/DTD/sodipodi-0.dtd"
   xmlns:inkscape="http://www.inkscape.org/namespaces/inkscape"
   width="1000"
   height="920"
   viewBox="0 0 264.58333 243.41668"
   version="1.1"
   id="svg8"
   inkscape:version="1.0.2 (e86c870879, 2021-01-15, custom)"
   sodipodi:docname="gamepad.svg">
  <defs
     id="defs2">
    <inkscape:path-effect
       effect="fillet_chamfer"
       id="path-effect1034"
       is_visible="true"
       lpeversion="1"
       satellites_param="F,0,0,1,0,3,0,1 @ F,0,0,1,0,3,0,1 @ F,0,0,1,0,3,0,1 @ F,0,0,1,0,3,0,1"
       unit="px"
       method="auto"
       mode="F"
       radius="3"
       chamfer_steps="1"
       flexible="false"
       use_knot_distance="true"
       apply_no_radius="true"
       apply_with_radius="true"
       only_selected="false"
       hide_knots="false" />
    <inkscape:path-effect
       effect="fillet_chamfer"
       id="path-effect1032"
       is_visible="true"
       lpeversion="1"
       satellites_param="F,0,0,1,0,3,0,1 @ F,0,0,1,0,3,0,1 @ F,0,0,1,0,3,0,1 @ F,0,0,1,0,3,0,1"
       unit="px"
       method="auto"
       mode="F"
       radius="3"
       chamfer_steps="1"
       flexible="false"
       use_knot_distance="true"
       apply_no_radius="true"
       apply_with_radius="true"
       only_selected="false"
       hide_knots="false" />
    <inkscape:path-effect
       effect="fillet_chamfer"
       id="path-effect1003"
       is_visible="true"
       lpeversion="1"
       satellites_param="F,0,0,1,0,3,0,1 @ F,0,0,1,0,3,0,1 @ F,0,0,1,0,3,0,1 @ F,0,0,1,0,3,0,1"
       unit="px"
       method="auto"
       mode="F"
       radius="3"
       chamfer_steps="1"
       flexible="false"
       use_knot_distance="true"
       apply_no_radius="true"
       apply_with_radius="true"
       only_selected="false"
       hide_knots="false" />
    <inkscape:path-effect
       effect="fillet_chamfer"
       id="path-effect980"
       is_visible="true"
       lpeversion="1"
       satellites_param="F,0,0,1,0,3,0,1 @ F,0,0,1,0,3,0,1 @ F,0,0,1,0,3,0,1 @ F,0,0,1,0,3,0,1"
       unit="px"
       method="auto"
       mode="F"
       radius="3"
       chamfer_steps="1"
       flexible="false"
       use_knot_distance="true"
       apply_no_radius="true"
       apply_with_radius="true"
       only_selected="false"
       hide_knots="false" />
    <inkscape:path-effect
       effect="fillet_chamfer"
       id="path-effect977"
       is_visible="true"
       lpeversion="1"
       satellites_param="F,0,0,1,0,0,0,1 @ F,0,0,1,0,0,0,1 @ F,0,0,1,0,0,0,1 @ F,0,0,1,0,0,0,1"
       unit="px"
       method="auto"
       mode="F"
       radius="0"
       chamfer_steps="1"
       flexible="false"
       use_knot_distance="true"
       apply_no_radius="true"
       apply_with_radius="true"
       only_selected="false"
       hide_knots="false" />
  </defs>
  <sodipodi:namedview
     id="base"
     pagecolor="#808080"
     bordercolor="#666666"
     borderopacity="1.0"
     inkscape:pageopacity="1"
     inkscape:pageshadow="2"
     inkscape:zoom="0.79545916"
     inkscape:cx="959.70028"
     inkscape:cy="370.88452"
     inkscape:document-units="px"
     inkscape:current-layer="layer1"
     inkscape:document-rotation="0"
     showgrid="false"
     units="px"
     inkscape:window-width="3840"
     inkscape:window-height="2080"
     inkscape:window-x="-11"
     inkscape:window-y="-11"
     inkscape:window-maximized="1"
     inkscape:snap-object-midpoints="true">
    <inkscape:grid
       type="xygrid"
       id="grid1372" />
  </sodipodi:namedview>
  <metadata
     id="metadata5">
    <rdf:RDF>
      <cc:Work
         rdf:about="">
        <dc:format>image/svg+xml</dc:format>
        <dc:type
           rdf:resource="http://purl.org/dc/dcmitype/StillImage" />
        <dc:title></dc:title>
      </cc:Work>
    </rdf:RDF>
  </metadata>
  <g
     inkscape:label="Layer 1"
     inkscape:groupmode="layer"
     id="layer1"
     style="display:inline">
    <ellipse
       style="opacity:1;fill:none;stroke:#ffffff;stroke-width:1.05833;stroke-linecap:round;stroke-linejoin:round;stroke-miterlimit:4;stroke-dasharray:none;stroke-opacity:1"
       id="path872"
       cx="139.64708"
       cy="86.518745"
       rx="9.7895832"
       ry="9.7895842" />
    <path
       style="fill:none;stroke:#ffffff;stroke-width:1.05833;stroke-linecap:butt;stroke-linejoin:miter;stroke-miterlimit:4;stroke-dasharray:none;stroke-opacity:1"
       d="m 177.5873,197.0859 c 5.22731,0.211 9.8629,1.47072 13.73766,4.09206 3.87476,2.62134 6.11313,5.40874 12.56849,11.54547 6.45536,6.13673 24.48946,26.87396 27.62145,26.74459 3.13199,-0.12937 8.91982,-1.43751 12.86078,-3.79978 3.94097,-2.36227 7.38761,-5.95239 9.93788,-10.08402 2.55027,-4.13163 4.01354,-8.86662 4.82279,-14.17609 0.80925,-5.30947 0.31596,-9.90332 -0.43843,-17.24514 -0.7544,-7.34182 -1.47175,-13.95548 -4.8228,-26.59844 -3.35105,-12.64296 -11.31629,-34.5358 -17.09899,-48.52022 -5.7827,-13.98443 -11.8416,-25.896712 -17.099,-33.905726 -5.25739,-8.009029 -13.51949,-11.208089 -22.36022,-13.883799 -8.84073,-2.67571 -17.59656,-2.046828 -29.66749,-2.456758 -12.07092,-0.40993 -32.83191,0 -32.83191,0 0,0 -24.97541,-0.409927 -37.046336,0 -12.070927,0.409927 -20.826759,-0.185886 -29.667488,2.489819 -8.840729,2.675708 -17.102827,5.874769 -22.360224,13.883798 -5.257397,8.009014 -11.316295,19.921296 -17.098993,33.905726 -5.782698,13.98442 -13.747945,35.87726 -17.098994,48.52022 -3.3510489,12.64296 -4.0683965,19.25662 -4.8227936,26.59844 -0.7543971,7.34182 -1.2476869,11.93567 -0.4384357,17.24514 0.8092512,5.30947 2.2725196,10.04446 4.8227933,14.17609 2.550274,4.13163 5.996914,7.72175 9.937877,10.08402 3.940963,2.36227 9.72879,3.67041 12.860782,3.79978 3.131992,0.12937 21.166089,-20.60786 27.621451,-26.74459 6.455362,-6.13673 8.693732,-8.92413 12.568492,-11.54547 3.87476,-2.62134 8.510347,-3.88106 13.737656,-4.09206 5.227309,-0.211 46.837953,-0.17921 46.837953,-0.17921 0,0 37.68874,-0.0649 42.91605,0.14615 z"
       id="path848-9"
       sodipodi:nodetypes="zzzzzzzzzzzzzczzzzzzzzzzzzzcz" />
    <circle
       style="opacity:1;fill:none;stroke:#ffffff;stroke-width:1.05833;stroke-linecap:round;stroke-linejoin:round;stroke-miterlimit:4;stroke-dasharray:none;stroke-opacity:1"
       id="button6"
       cx="119.38"
       cy="113.03001"
       r="6.3499999" />
    <circle
       style="opacity:1;fill:none;stroke:#ffffff;stroke-width:1.05833;stroke-linecap:round;stroke-linejoin:round;stroke-miterlimit:4;stroke-dasharray:none;stroke-opacity:1"
       id="button7"
       cx="159.54375"
       cy="113.24163"
       r="6.3499999" />
    <circle
       style="opacity:1;fill:none;stroke:#ffffff;stroke-width:1.05833;stroke-linecap:round;stroke-linejoin:round;stroke-miterlimit:4;stroke-dasharray:none;stroke-opacity:1"
       id="button2"
       cx="186.26672"
       cy="113.98249"
       r="8.4666672"
       inkscape:label="X" />
    <circle
       style="fill:none;stroke:#ffffff;stroke-width:1.05833;stroke-linecap:round;stroke-linejoin:round;stroke-miterlimit:4;stroke-dasharray:none;stroke-opacity:1"
       id="button0"
       cx="204.47006"
       cy="133.13829"
       r="8.4666672"
       inkscape:label="A" />
    <path
       style="fill:none;stroke:#ffffff;stroke-width:1.05833;stroke-linecap:butt;stroke-linejoin:miter;stroke-miterlimit:4;stroke-dasharray:none;stroke-opacity:1"
       d="m 63.086299,63.445692 c -9.710209,-0.309796 -25.43316,-5.26682 -25.761292,-21.184057 -0.02201,-6.889252 1.33204,-20.489033 3.268371,-24.869323 1.93633,-4.380289 5.924279,-8.0586315 9.62122,-9.6594882 3.696941,-1.600857 11.682122,-2.423938 16.388967,-0.528919 4.706845,1.8950127 7.380113,4.4576982 9.504104,6.4645762 2.123991,2.00688 5.982545,4.433925 11.37499,5.054147 5.392445,0.620222 44.809011,0 44.809011,0 0,0 40.10808,0.620189 45.50053,-3.3e-5 5.39244,-0.620222 9.251,-3.047245 11.37499,-5.054124 2.12399,-2.006881 4.79726,-4.5695625 9.5041,-6.4645802 4.70685,-1.895018 12.69203,-1.071935 16.38897,0.52892 3.69694,1.6008567 7.68489,5.2792002 9.62122,9.6594902 1.93633,4.38029 3.29037,17.980069 3.26837,24.869323 -1.42655,16.517451 -16.82993,21.330311 -25.76129,21.184058 -8.93136,-0.146252 -46.59793,3e-6 -69.89689,4e-6 -23.06846,2e-6 -59.495162,0.309801 -69.205371,6e-6 z"
       id="path1849"
       sodipodi:nodetypes="zczzzzzczzzzzczsz" />
    <circle
       style="fill:none;stroke:#ffffff;stroke-width:1.05833;stroke-linecap:round;stroke-linejoin:round;stroke-miterlimit:4;stroke-dasharray:none;stroke-opacity:1"
       id="button3"
       cx="204.89339"
       cy="97.419579"
       r="8.4666672"
       inkscape:label="Y" />
    <circle
       style="fill:none;stroke:#ffffff;stroke-width:1.05833;stroke-linecap:round;stroke-linejoin:round;stroke-miterlimit:4;stroke-dasharray:none;stroke-opacity:1"
       id="button1"
       cx="223.09673"
       cy="116.57544"
       r="8.4666672"
       inkscape:label="B" />
    <g
       id="right-stick"
       inkscape:label="Right Stick"
       transform="translate(-5.0270754,-16.139577)"
       style="stroke:#ffffff;stroke-width:1.05833;stroke-miterlimit:4;stroke-dasharray:none;stroke-opacity:1">
      <g
         id="right-stick-core"
         transform="translate(-0.13230778,-0.13230041)"
         inkscape:label="Core"
         style="stroke:#ffffff;stroke-width:1.05833;stroke-miterlimit:4;stroke-dasharray:none;stroke-opacity:1">
        <circle
           style="opacity:1;fill:none;stroke:#ffffff;stroke-width:1.05833;stroke-linecap:round;stroke-linejoin:round;stroke-miterlimit:4;stroke-dasharray:none;stroke-opacity:1"
           id="button9"
           cx="179.12291"
           cy="175.94792"
           r="11.90625" />
        <circle
           style="opacity:1;fill:none;stroke:#ffffff;stroke-width:1.05833;stroke-linecap:round;stroke-linejoin:round;stroke-miterlimit:4;stroke-dasharray:none;stroke-opacity:1"
           id="path943-4"
           cx="179.12291"
           cy="175.94792"
           r="16.139584" />
      </g>
      <circle
         style="opacity:1;fill:none;stroke:#ffffff;stroke-width:1.05833;stroke-linecap:round;stroke-linejoin:round;stroke-miterlimit:4;stroke-dasharray:none;stroke-opacity:1"
         id="path965"
         cx="178.9906"
         cy="175.81563"
         r="23.547916" />
    </g>
    <path
       style="fill:none;stroke:#ffffff;stroke-width:1.05833;stroke-linecap:butt;stroke-linejoin:miter;stroke-miterlimit:4;stroke-dasharray:none;stroke-opacity:1"
       d="m 95.25001,178.3292 c 0.30567,0.89238 4.55913,1.05834 6.87916,1.05834 2.32003,0 6.70579,-0.0866 6.87916,-1.05834 0.17339,-0.97176 0,-12.43542 0,-12.43542 0,0 11.46366,0.17338 12.43542,0 0.97176,-0.17337 1.05834,-4.55913 1.05834,-6.87916 0,-2.32003 -0.16596,-6.5735 -1.05834,-6.87917 -0.89238,-0.30567 -12.43542,0 -12.43542,0 0,0 0.17338,-11.46366 0,-12.43542 -0.17337,-0.97176 -4.55913,-1.05834 -6.87916,-1.05834 -2.320034,0 -6.5735,0.16596 -6.879169,1.05834 -0.30567,0.89238 0,12.43542 0,12.43542 0,0 -11.54304,-0.30567 -12.43542,0 -0.89238,0.30567 -1.05834,4.55913 -1.05834,6.87916 0,2.32003 0.08658,6.70579 1.05834,6.87916 0.97176,0.17339 12.435424,1e-5 12.435424,1e-5 0,0 -0.305665,11.54304 5e-6,12.43542 z"
       id="path1015-9-1-7"
       sodipodi:nodetypes="zzzczzzczzzczzzcz" />
    <circle
       style="opacity:1;fill:none;stroke:#ffffff;stroke-width:1.05833;stroke-linecap:round;stroke-linejoin:round;stroke-miterlimit:4;stroke-dasharray:none;stroke-opacity:1"
       id="path1117"
       cx="102.12917"
       cy="159.01456"
       r="22.489582" />
    <path
       style="fill:none;stroke:#ffffff;stroke-width:1.05833;stroke-linecap:butt;stroke-linejoin:miter;stroke-miterlimit:4;stroke-dasharray:none;stroke-opacity:1"
       d="m 135.14916,133.77339 c 0,0 -3.70416,0.0838 -3.70416,-5.02709 0,-5.11094 3.70416,-5.02709 3.70416,-5.02709 2.90183,0.0245 5.85583,0.0353 8.78418,0 0,0 3.75708,-0.0839 3.70416,5.02709 -0.0529,5.11094 -3.70416,5.02709 -3.70416,5.02709 -2.99444,0.0152 -5.8426,0.0176 -8.78418,0 z"
       id="path1119"
       sodipodi:nodetypes="czcczcc" />
    <path
       style="fill:none;stroke:#ffffff;stroke-width:0.79375;stroke-linecap:round;stroke-linejoin:miter;stroke-miterlimit:4;stroke-dasharray:none;stroke-opacity:1"
       d="m 155.83958,113.2417 h 7.40833"
       id="path1201" />
    <path
       style="fill:none;stroke:#ffffff;stroke-width:0.79375;stroke-linecap:round;stroke-linejoin:miter;stroke-miterlimit:4;stroke-dasharray:none;stroke-opacity:1"
       d="m 155.83958,115.35836 h 7.40833"
       id="path1201-4" />
    <path
       style="fill:none;stroke:#ffffff;stroke-width:0.79375;stroke-linecap:round;stroke-linejoin:miter;stroke-miterlimit:4;stroke-dasharray:none;stroke-opacity:1"
       d="m 155.83958,111.12503 h 7.40833"
       id="path1201-7" />
    <rect
       style="opacity:1;fill:none;stroke:#ffffff;stroke-width:0.79375;stroke-linecap:round;stroke-linejoin:round;stroke-miterlimit:4;stroke-dasharray:none;stroke-opacity:1"
       id="rect1232"
       width="4.3217483"
       height="3.517267"
       x="118.55809"
       y="112.32642" />
    <path
       id="rect1232-3"
       style="fill:none;stroke:#ffffff;stroke-width:0.79375;stroke-linecap:round;stroke-linejoin:round;stroke-miterlimit:4;stroke-dasharray:none;stroke-opacity:1"
       d="m 117.19234,113.65478 h -1.11318 v -3.51727 h 4.32175 v 0.98752"
       sodipodi:nodetypes="ccccc" />
    <path
       id="rect1257"
       style="opacity:1;fill:none;stroke:#ffffff;stroke-width:0.79375;stroke-linecap:round;stroke-linejoin:round;stroke-miterlimit:4;stroke-dasharray:none;stroke-opacity:1"
       d="m 143.16604,127.63504 v 2.50031 h -7.34219 v -2.50031"
       sodipodi:nodetypes="cccc" />
    <path
       style="fill:none;stroke:#ffffff;stroke-width:0.79375;stroke-linecap:round;stroke-linejoin:miter;stroke-miterlimit:4;stroke-dasharray:none;stroke-opacity:1"
       d="m 139.49494,128.71982 c -0.007,-2.63338 -0.007,-2.64583 -0.007,-2.64583"
       id="path1260" />
    <path
       style="fill:none;stroke:#ffffff;stroke-width:0.79375;stroke-linecap:round;stroke-linejoin:miter;stroke-miterlimit:4;stroke-dasharray:none;stroke-opacity:1"
       d="m 140.66573,127.0794 -1.17779,-1.00541"
       id="path1262" />
    <path
       style="display:inline;fill:none;stroke:#ffffff;stroke-width:0.79375;stroke-linecap:round;stroke-linejoin:miter;stroke-miterlimit:4;stroke-dasharray:none;stroke-opacity:1"
       d="m 138.31015,127.0794 1.17779,-1.00541"
       id="path1262-8" />
    <text
       xml:space="preserve"
       style="font-style:normal;font-variant:normal;font-weight:bold;font-stretch:normal;font-size:15.5222px;line-height:1.25;font-family:Arial;-inkscape-font-specification:'Arial Bold';fill:#ffffff;fill-opacity:1;stroke:none;stroke-width:0.264583"
       x="181.2925"
       y="119.32705"
       id="text1286"><tspan
         sodipodi:role="line"
         id="tspan1284"
         x="181.2925"
         y="119.32705"
         style="font-style:normal;font-variant:normal;font-weight:bold;font-stretch:normal;font-size:15.5222px;font-family:Arial;-inkscape-font-specification:'Arial Bold';fill:#ffffff;stroke-width:0.264583">X</tspan></text>
    <text
       xml:space="preserve"
       style="font-style:normal;font-variant:normal;font-weight:bold;font-stretch:normal;font-size:15.5222px;line-height:1.25;font-family:Arial;-inkscape-font-specification:'Arial Bold';display:inline;fill:#ffffff;fill-opacity:1;stroke:none;stroke-width:0.264583"
       x="199.78102"
       y="103.39845"
       id="text1286-3"><tspan
         sodipodi:role="line"
         id="tspan1284-8"
         x="199.78102"
         y="103.39845"
         style="font-style:normal;font-variant:normal;font-weight:bold;font-stretch:normal;font-size:15.5222px;font-family:Arial;-inkscape-font-specification:'Arial Bold';fill:#ffffff;stroke-width:0.264583">Y</tspan></text>
    <text
       xml:space="preserve"
       style="font-style:normal;font-variant:normal;font-weight:bold;font-stretch:normal;font-size:15.5222px;line-height:1.25;font-family:Arial;-inkscape-font-specification:'Arial Bold';display:inline;fill:#ffffff;fill-opacity:1;stroke:none;stroke-width:0.264583"
       x="198.98727"
       y="138.11177"
       id="text1286-0"><tspan
         sodipodi:role="line"
         id="tspan1284-0"
         x="198.98727"
         y="138.11177"
         style="font-style:normal;font-variant:normal;font-weight:bold;font-stretch:normal;font-size:15.5222px;font-family:Arial;-inkscape-font-specification:'Arial Bold';fill:#ffffff;stroke-width:0.264583">A</tspan></text>
    <text
       xml:space="preserve"
       style="font-style:normal;font-variant:normal;font-weight:bold;font-stretch:normal;font-size:15.5222px;line-height:1.25;font-family:Arial;-inkscape-font-specification:'Arial Bold';display:inline;fill:#ffffff;fill-opacity:1;stroke:none;stroke-width:0.264583"
       x="217.66685"
       y="122.0251"
       id="text1286-8"><tspan
         sodipodi:role="line"
         id="tspan1284-9"
         x="217.66685"
         y="122.0251"
         style="font-style:normal;font-variant:normal;font-weight:bold;font-stretch:normal;font-size:15.5222px;font-family:Arial;-inkscape-font-specification:'Arial Bold';fill:#ffffff;stroke-width:0.264583">B</tspan></text>
    <g
       id="left-stick"
       inkscape:label="Left Stick"
       transform="translate(-111.12499,-64.029164)"
       style="display:inline;stroke:#ffffff;stroke-width:1.05833;stroke-miterlimit:4;stroke-dasharray:none;stroke-opacity:1">
      <g
         id="left-stick-core"
         transform="translate(-0.13231075,-0.13229715)"
         inkscape:label="Core"
         style="stroke:#ffffff;stroke-width:1.05833;stroke-miterlimit:4;stroke-dasharray:none;stroke-opacity:1">
        <circle
           style="opacity:1;fill:none;stroke:#ffffff;stroke-width:1.05833;stroke-linecap:round;stroke-linejoin:round;stroke-miterlimit:4;stroke-dasharray:none;stroke-opacity:1"
           id="button8"
           cx="179.12291"
           cy="175.94792"
           r="11.90625" />
        <circle
           style="opacity:1;fill:none;stroke:#ffffff;stroke-width:1.05833;stroke-linecap:round;stroke-linejoin:round;stroke-miterlimit:4;stroke-dasharray:none;stroke-opacity:1"
           id="path943-4-7"
           cx="179.12291"
           cy="175.94792"
           r="16.139584" />
      </g>
      <circle
         style="opacity:1;fill:none;stroke:#ffffff;stroke-width:1.05833;stroke-linecap:round;stroke-linejoin:round;stroke-miterlimit:4;stroke-dasharray:none;stroke-opacity:1"
         id="path965-9"
         cx="178.9906"
         cy="175.81563"
         r="23.547916" />
    </g>
    <path
       style="display:inline;fill:none;stroke:#ffffff;stroke-width:0.529167;stroke-linecap:round;stroke-linejoin:round;stroke-miterlimit:4;stroke-dasharray:none;stroke-opacity:1"
       d="m 102.12917,139.56773 -6.085423,6.61459 h 12.170843 z"
       id="d1"
       sodipodi:nodetypes="cccc" />
    <path
       style="display:inline;fill:none;stroke:#ffffff;stroke-width:0.529167;stroke-linecap:round;stroke-linejoin:round;stroke-miterlimit:4;stroke-dasharray:none;stroke-opacity:1"
       d="m 102.12917,178.4615 -6.085423,-6.61459 h 12.170843 z"
       id="d5"
       sodipodi:nodetypes="cccc" />
    <path
       style="display:inline;fill:none;stroke:#ffffff;stroke-width:0.529167;stroke-linecap:round;stroke-linejoin:round;stroke-miterlimit:4;stroke-dasharray:none;stroke-opacity:1"
       d="m 121.57605,159.01461 -6.61458,-6.08542 v 12.17084 z"
       id="d3"
       sodipodi:nodetypes="cccc" />
    <path
       style="display:inline;fill:none;stroke:#ffffff;stroke-width:0.529167;stroke-linecap:round;stroke-linejoin:round;stroke-miterlimit:4;stroke-dasharray:none;stroke-opacity:1"
       d="m 82.682283,159.01461 6.61459,-6.08542 v 12.17084 z"
       id="d7"
       sodipodi:nodetypes="cccc" />
    <path
       style="display:inline;fill:none;stroke:#ffffff;stroke-width:0.529167;stroke-linecap:round;stroke-linejoin:round;stroke-miterlimit:4;stroke-dasharray:none;stroke-opacity:1"
       d="m 117.04542,144.09836 -7.07838,0.29493 6.78345,6.78345 z"
       id="d2"
       sodipodi:nodetypes="cccc" />
    <path
       style="display:inline;fill:none;stroke:#ffffff;stroke-width:0.529167;stroke-linecap:round;stroke-linejoin:round;stroke-miterlimit:4;stroke-dasharray:none;stroke-opacity:1"
       d="m 116.94583,173.83128 -7.07838,-0.29493 6.78345,-6.78345 z"
       id="d4"
       sodipodi:nodetypes="cccc" />
    <path
       style="display:inline;fill:none;stroke:#ffffff;stroke-width:0.529167;stroke-linecap:round;stroke-linejoin:round;stroke-miterlimit:4;stroke-dasharray:none;stroke-opacity:1"
       d="m 87.312501,173.83128 7.07838,-0.29493 -6.78345,-6.78345 z"
       id="d6"
       sodipodi:nodetypes="cccc" />
    <path
       style="display:inline;fill:none;stroke:#ffffff;stroke-width:0.529167;stroke-linecap:round;stroke-linejoin:round;stroke-miterlimit:4;stroke-dasharray:none;stroke-opacity:1"
       d="m 87.3125,144.09846 7.07838,0.29493 -6.78345,6.78345 z"
       id="d8"
       sodipodi:nodetypes="cccc" />
    <path
       id="right-trigger"
       d="m 202.23766,9.6155543 h 8.81667 a 3,3 45 0 1 3,2.9999997 l 0,24.691671 a 3,3 135 0 1 -3,3 h -8.81667 a 3,3 45 0 1 -3,-3 V 12.615554 a 3,3 135 0 1 3,-2.9999997 z"
       style="opacity:1;fill:none;stroke:#ffffff;stroke-width:1.05833;stroke-linecap:round;stroke-linejoin:miter;stroke-miterlimit:4;stroke-dasharray:none"
       inkscape:path-effect="#path-effect980"
       inkscape:original-d="m 199.23766,9.6155543 h 14.81667 V 40.307225 h -14.81667 z" />
    <path
       id="button5"
       d="m 214.1571,45.936883 v 8.81667 a 3,3 135 0 1 -3,3 h -32.62917 a 3,3 45 0 1 -3,-3 v -8.81667 a 3,3 135 0 1 3,-3 h 32.62917 a 3,3 45 0 1 3,3 z"
       style="display:inline;fill:none;stroke:#ffffff;stroke-width:1.05833;stroke-linecap:round;stroke-linejoin:miter;stroke-miterlimit:4;stroke-dasharray:none"
       inkscape:path-effect="#path-effect1003"
       inkscape:original-d="m 214.1571,42.936883 v 14.81667 h -38.62917 v -14.81667 z"
       inkscape:label="button5" />
    <path
       id="left-trigger"
       d="m 63.163605,9.6154853 h -8.81667 a 3,3 135 0 0 -3,2.9999997 v 24.691671 a 3,3 45 0 0 3,3 h 8.81667 a 3,3 135 0 0 3,-3 V 12.615485 a 3,3 45 0 0 -3,-2.9999997 z"
       style="display:inline;fill:none;stroke:#ffffff;stroke-width:1.05833;stroke-linecap:round;stroke-linejoin:miter;stroke-miterlimit:4;stroke-dasharray:none"
       inkscape:path-effect="#path-effect1032"
       inkscape:original-d="M 66.163605,9.6154853 H 51.346935 V 40.307156 h 14.81667 z"
       inkscape:label="left-trigger" />
    <path
       id="button4"
       d="m 51.244165,45.936814 v 8.81667 a 3,3 45 0 0 3,3 h 32.629169 a 3,3 135 0 0 3,-3 v -8.81667 a 3,3 45 0 0 -3,-3 l -32.629169,0 a 3,3 135 0 0 -3,3 z"
       style="display:inline;fill:none;stroke:#ffffff;stroke-width:1.05833;stroke-linecap:round;stroke-linejoin:miter;stroke-miterlimit:4;stroke-dasharray:none"
       inkscape:path-effect="#path-effect1034"
       inkscape:original-d="m 51.244165,42.936814 v 14.81667 h 38.629169 v -14.81667 z"
       inkscape:label="button4" />
  </g>
</svg>
