<?xml version="1.0" encoding="UTF-8" standalone="no"?>
<svg
   xmlns:dc="http://purl.org/dc/elements/1.1/"
   xmlns:cc="http://creativecommons.org/ns#"
   xmlns:rdf="http://www.w3.org/1999/02/22-rdf-syntax-ns#"
   xmlns:svg="http://www.w3.org/2000/svg"
   xmlns="http://www.w3.org/2000/svg"
   xmlns:sodipodi="http://sodipodi.sourceforge.net/DTD/sodipodi-0.dtd"
   xmlns:inkscape="http://www.inkscape.org/namespaces/inkscape"
   version="1.1"
   id="svg8"
   inkscape:version="1.0.2 (e86c870879, 2021-01-15, custom)"
   sodipodi:docname="XBoxSeriesX-RawInput.svg"
   x="0px"
   y="0px"
   viewBox="0 0 1000 920"
   style="enable-background:new 0 0 1000 920;"
   xml:space="preserve"><metadata
   id="metadata74"><rdf:RDF><cc:Work
       rdf:about=""><dc:format>image/svg+xml</dc:format><dc:type
         rdf:resource="http://purl.org/dc/dcmitype/StillImage" /></cc:Work></rdf:RDF></metadata>
<style
   type="text/css"
   id="style2">
	.st0{fill:none;stroke:#FFFFFF;stroke-width:4;stroke-linecap:round;stroke-linejoin:round;stroke-miterlimit:15.1181;}
	.st1{fill:none;stroke:#FFFFFF;stroke-width:4;stroke-miterlimit:15.1181;}
	.st2{fill:none;}
	.st3{fill:none;stroke:#FFFFFF;stroke-width:3;stroke-linecap:round;stroke-miterlimit:15.1181;}
	.st4{fill:none;stroke:#FFFFFF;stroke-width:3;stroke-linecap:round;stroke-linejoin:round;stroke-miterlimit:15.1181;}
	.st5{fill:none;stroke:#FFFFFF;stroke-width:4;stroke-linejoin:bevel;stroke-miterlimit:15.1181;}
	.st6{enable-background:new    ;}
	.st7{fill:#FFFFFF;}
	.st8{fill:none;stroke:#FFFFFF;stroke-width:4;stroke-linecap:round;stroke-miterlimit:15.1181;}
</style>
<defs
   id="defs9">
	
		<inkscape:path-effect
   apply_no_radius="true"
   apply_with_radius="true"
   chamfer_steps="1"
   effect="fillet_chamfer"
   flexible="false"
   hide_knots="false"
   id="path-effect1034"
   is_visible="true"
   lpeversion="1"
   method="auto"
   mode="F"
   only_selected="false"
   radius="3"
   satellites_param="F,0,0,1,0,3,0,1 @ F,0,0,1,0,3,0,1 @ F,0,0,1,0,3,0,1 @ F,0,0,1,0,3,0,1"
   unit="px"
   use_knot_distance="true">
		</inkscape:path-effect>
	
		<inkscape:path-effect
   apply_no_radius="true"
   apply_with_radius="true"
   chamfer_steps="1"
   effect="fillet_chamfer"
   flexible="false"
   hide_knots="false"
   id="path-effect1032"
   is_visible="true"
   lpeversion="1"
   method="auto"
   mode="F"
   only_selected="false"
   radius="3"
   satellites_param="F,0,0,1,0,3,0,1 @ F,0,0,1,0,3,0,1 @ F,0,0,1,0,3,0,1 @ F,0,0,1,0,3,0,1"
   unit="px"
   use_knot_distance="true">
		</inkscape:path-effect>
	
		<inkscape:path-effect
   apply_no_radius="true"
   apply_with_radius="true"
   chamfer_steps="1"
   effect="fillet_chamfer"
   flexible="false"
   hide_knots="false"
   id="path-effect1003"
   is_visible="true"
   lpeversion="1"
   method="auto"
   mode="F"
   only_selected="false"
   radius="3"
   satellites_param="F,0,0,1,0,3,0,1 @ F,0,0,1,0,3,0,1 @ F,0,0,1,0,3,0,1 @ F,0,0,1,0,3,0,1"
   unit="px"
   use_knot_distance="true">
		</inkscape:path-effect>
	
		<inkscape:path-effect
   apply_no_radius="true"
   apply_with_radius="true"
   chamfer_steps="1"
   effect="fillet_chamfer"
   flexible="false"
   hide_knots="false"
   id="path-effect980"
   is_visible="true"
   lpeversion="1"
   method="auto"
   mode="F"
   only_selected="false"
   radius="3"
   satellites_param="F,0,0,1,0,3,0,1 @ F,0,0,1,0,3,0,1 @ F,0,0,1,0,3,0,1 @ F,0,0,1,0,3,0,1"
   unit="px"
   use_knot_distance="true">
		</inkscape:path-effect>
	
		<inkscape:path-effect
   apply_no_radius="true"
   apply_with_radius="true"
   chamfer_steps="1"
   effect="fillet_chamfer"
   flexible="false"
   hide_knots="false"
   id="path-effect977"
   is_visible="true"
   lpeversion="1"
   method="auto"
   mode="F"
   only_selected="false"
   radius="0"
   satellites_param="F,0,0,1,0,0,0,1 @ F,0,0,1,0,0,0,1 @ F,0,0,1,0,0,0,1 @ F,0,0,1,0,0,0,1"
   unit="px"
   use_knot_distance="true">
		</inkscape:path-effect>
<clipPath
   clipPathUnits="userSpaceOnUse"
   id="clipPath1024"><g
     inkscape:label="Clip"
     id="use1026" /></clipPath>
     </defs>
<sodipodi:namedview
   bordercolor="#666666"
   borderopacity="1.0"
   id="base"
   inkscape:current-layer="RightStickCore"
   inkscape:cx="463.20141"
   inkscape:cy="284.04943"
   inkscape:document-rotation="0"
   inkscape:document-units="px"
   inkscape:pageopacity="1"
   inkscape:pageshadow="2"
   inkscape:snap-object-midpoints="true"
   inkscape:window-height="2080"
   inkscape:window-maximized="1"
   inkscape:window-width="3840"
   inkscape:window-x="-11"
   inkscape:window-y="-11"
   inkscape:zoom="1.6929934"
   pagecolor="#808080"
   showgrid="false"
   units="px">
	<inkscape:grid
   id="grid1372"
   type="xygrid" />
</sodipodi:namedview>
<g
   id="layer1"
   inkscape:groupmode="layer"
   inkscape:label="Layer 1">
	<circle
   id="path872"
   class="st0"
   cx="527.79999"
   cy="327"
   r="37" />
	<path
   id="path848-9"
   sodipodi:nodetypes="zzzzzzzzzzzzzczzzzzzzzzzzzzcz"
   class="st1"
   d="m 671.2,744.9 c 19.8,0.8 37.3,5.6 51.9,15.5 14.6,9.9 23.1,20.4 47.5,43.6 24.4,23.2 92.6,101.6 104.4,101.1 11.8,-0.5 33.7,-5.4 48.6,-14.4 14.9,-8.9 27.9,-22.5 37.6,-38.1 9.6,-15.6 15.2,-33.5 18.2,-53.6 3.1,-20.1 1.2,-37.4 -1.7,-65.2 -2.9,-27.7 -5.6,-52.7 -18.2,-100.5 C 946.8,585.5 916.7,502.8 894.9,449.9 873,397 850.1,352 830.3,321.8 810.4,291.5 779.2,279.4 745.8,269.3 712.4,259.2 679.3,261.6 633.7,260 c -45.6,-1.5 -124.1,0 -124.1,0 0,0 -94.4,-1.5 -140,0 -45.6,1.5 -78.7,-0.7 -112.1,9.4 -33.4,10.1 -64.6,22.2 -84.5,52.5 C 153.1,352.2 130.2,397.2 108.4,450 86.5,502.9 56.4,585.6 43.8,633.4 31,681.2 28.3,706.2 25.4,734 c -2.9,27.8 -4.7,45.1 -1.7,65.2 3.1,20.1 8.6,38 18.2,53.6 9.6,15.6 22.7,29.2 37.6,38.1 14.9,8.9 36.8,13.9 48.6,14.4 11.8,0.5 80,-77.9 104.4,-101.1 24.4,-23.2 32.9,-33.7 47.5,-43.6 14.6,-9.9 32.2,-14.7 51.9,-15.5 19.8,-0.8 177,-0.7 177,-0.7 0,0 142.5,-0.3 162.3,0.5 z"
   style="display:inline" />
	<circle
   id="Button6"
   class="st0"
   cx="451.20001"
   cy="427.20001"
   r="24"
   inkscape:label="Button6" />
	<circle
   id="Button7"
   class="st0"
   cx="603"
   cy="428"
   r="24"
   inkscape:label="Button7" />
	<circle
   id="Button2"
   inkscape:label="Button2"
   class="st0"
   cx="704"
   cy="430.79999"
   r="32">
	</circle>
	<circle
   id="Button0"
   inkscape:label="Button0"
   class="st0"
   cx="772.79999"
   cy="503.20001"
   r="32">
	</circle>
	<path
   id="path1849"
   sodipodi:nodetypes="zczzzzzczzzzzczsz"
   class="st2"
   d="m 238.4,239.8 c -36.7,-1.2 -96.1,-19.9 -97.4,-80.1 -0.1,-26 5,-77.4 12.4,-94 7.3,-16.6 22.4,-30.5 36.4,-36.5 14,-6 44.2,-9.2 61.9,-2 17.8,7.2 27.9,16.8 35.9,24.4 8,7.6 22.6,16.8 43,19.1 20.4,2.3 169.4,0 169.4,0 0,0 151.6,2.3 172,0 20.4,-2.3 35,-11.5 43,-19.1 8,-7.6 18.1,-17.3 35.9,-24.4 17.8,-7.1 48,-4.1 61.9,2 13.9,6.1 29,20 36.4,36.5 7.3,16.6 12.4,68 12.4,94 -5.4,62.4 -63.6,80.6 -97.4,80.1 -33.8,-0.6 -176.1,0 -264.2,0 -87.2,0 -224.9,1.2 -261.6,0 z" />
	<circle
   id="Button3"
   inkscape:label="Button3"
   class="st0"
   cx="774.40002"
   cy="368.20001"
   r="32">
	</circle>
	<circle
   id="Button1"
   inkscape:label="Button1"
   class="st0"
   cx="843.20001"
   cy="440.60001"
   r="32">
	</circle>
	<g
   id="right-stick"
   transform="translate(-5.0270754,-16.139577)"
   inkscape:label="Right Stick">
		<g
   id="RightStickCore"
   transform="translate(-0.13230778,-0.13230041)"
   inkscape:label="Core">
			<circle
   id="Button9"
   class="st0"
   cx="662.70001"
   cy="619.79999"
   r="45"
   inkscape:label="Button9" />
			<circle
   id="path943-4"
   class="st0"
   cx="662.70001"
   cy="619.79999"
   r="61" />
		</g>
		<circle
   id="path965"
   class="st0"
   cx="662.5"
   cy="619.59998"
   r="89" />
	</g>
	<path
   id="dpad"
   inkscape:label="dpad"
   sodipodi:nodetypes="zzzczzzczzzczzzcz"
   class="st1"
   d="m 360,674 c 1.2,3.4 17.2,4 26,4 8.8,0 25.3,-0.3 26,-4 0.7,-3.7 0,-47 0,-47 0,0 43.3,0.7 47,0 3.7,-0.7 4,-17.2 4,-26 0,-8.8 -0.6,-24.8 -4,-26 -3.4,-1.2 -47,0 -47,0 0,0 0.7,-43.3 0,-47 -0.7,-3.7 -17.2,-4 -26,-4 -8.8,0 -24.8,0.6 -26,4 -1.2,3.4 0,47 0,47 0,0 -43.6,-1.2 -47,0 -3.4,1.2 -4,17.2 -4,26 0,8.8 0.3,25.3 4,26 3.7,0.7 47,0 47,0 0,0 -1.2,43.6 0,47 z" />
	<circle
   id="path1117"
   class="st0"
   cx="386"
   cy="601"
   r="85" />
	<path
   id="path1119"
   sodipodi:nodetypes="czcczcc"
   class="st1"
   d="m 510.8,505.6 c 0,0 -14,0.3 -14,-19 0,-19.3 14,-19 14,-19 11,0.1 22.1,0.1 33.2,0 0,0 14.2,-0.3 14,19 -0.2,19.3 -14,19 -14,19 -11.3,0.1 -22.1,0.1 -33.2,0 z" />
	<path
   id="path1201"
   class="st3"
   d="m 589,428 h 28" />
	<path
   id="path1201-4"
   class="st3"
   d="m 589,436 h 28" />
	<path
   id="path1201-7"
   class="st3"
   d="m 589,420 h 28" />
	<rect
   id="rect1232"
   x="448.10001"
   y="424.5"
   class="st4"
   width="16.299999"
   height="13.3" />
	<path
   id="rect1232-3"
   sodipodi:nodetypes="ccccc"
   class="st4"
   d="m 442.9,429.6 h -4.2 V 416.3 H 455 v 3.7" />
	<path
   id="D2"
   inkscape:label="D2"
   sodipodi:nodetypes="czzzcc"
   class="st5"
   d="m 411.6,627 c 0,0 43.7,0.7 47.4,0 3.7,-0.7 4,-17.2 4,-26 0,-8.8 -0.6,-24.8 -4,-26 -3.4,-1.2 -47.4,0 -47.4,0 -8.7,14.3 -8.5,37.7 0,52 z" />
	<path
   id="rect1257"
   sodipodi:nodetypes="cccc"
   class="st4"
   d="m 541.1,482.4 v 9.4 h -27.8 v -9.4" />
	<path
   id="path1260"
   class="st3"
   d="m 527.2,486.5 c 0,-10 0,-10 0,-10" />
	<path
   id="path1262"
   class="st3"
   d="m 531.6,480.3 -4.5,-3.8" />
	<path
   id="path1262-8"
   class="st3"
   d="m 522.7,480.3 4.5,-3.8" />
	<g
   class="st6"
   id="g42">
		<path
   class="st7"
   d="m 685.2,451 14.4,-21.9 -13,-20.1 h 9.9 l 8.4,13.5 8.2,-13.5 h 9.8 l -13.1,20.4 14.4,21.6 H 714 l -9.3,-14.5 -9.3,14.5 z"
   id="path40" />
	</g>
	<g
   class="st6"
   id="g46">
		<path
   class="st7"
   d="M 770.4,390.8 V 373.1 L 755,348.8 h 9.9 l 9.9,16.6 9.7,-16.6 h 9.8 l -15.4,24.4 v 17.6 z"
   id="path44" />
	</g>
	<g
   class="st6"
   id="g50">
		<path
   class="st7"
   d="M 794.2,522 H 785 l -3.7,-9.5 H 764.5 L 761,522 h -9 l 16.4,-42 h 9 z m -15.6,-16.6 -5.8,-15.6 -5.7,15.6 z"
   id="path48" />
	</g>
	<g
   class="st6"
   id="g54">
		<path
   class="st7"
   d="m 827,419.2 h 16.8 c 3.3,0 5.8,0.1 7.4,0.4 1.6,0.3 3.1,0.9 4.4,1.7 1.3,0.9 2.4,2 3.2,3.5 0.8,1.5 1.3,3.1 1.3,4.9 0,2 -0.5,3.8 -1.6,5.4 -1.1,1.6 -2.5,2.9 -4.3,3.7 2.6,0.7 4.5,2 5.9,3.8 1.4,1.8 2.1,3.9 2.1,6.3 0,1.9 -0.4,3.8 -1.3,5.6 -0.9,1.8 -2.1,3.2 -3.6,4.3 -1.5,1.1 -3.4,1.7 -5.7,2 -1.4,0.2 -4.8,0.2 -10.2,0.3 H 827 Z m 8.5,7 v 9.7 h 5.6 c 3.3,0 5.4,0 6.2,-0.1 1.5,-0.2 2.6,-0.7 3.4,-1.5 0.8,-0.8 1.2,-1.9 1.2,-3.3 0,-1.3 -0.4,-2.4 -1.1,-3.2 -0.7,-0.8 -1.8,-1.3 -3.2,-1.5 -0.8,-0.1 -3.3,-0.1 -7.2,-0.1 z m 0,16.7 v 11.2 h 7.8 c 3.1,0 5,-0.1 5.8,-0.3 1.3,-0.2 2.3,-0.8 3.1,-1.7 0.8,-0.9 1.2,-2.1 1.2,-3.6 0,-1.3 -0.3,-2.3 -0.9,-3.2 -0.6,-0.9 -1.5,-1.5 -2.7,-1.9 -1.2,-0.4 -3.7,-0.6 -7.5,-0.6 h -6.8 z"
   id="path52" />
	</g>
	<g
   id="left-stick"
   transform="translate(-111.12499,-64.029164)"
   inkscape:label="Left Stick">
		<g
   id="LeftStickCore"
   transform="translate(-0.13231075,-0.13229715)"
   inkscape:label="Core">
			<circle
   id="Button8"
   class="st0"
   cx="367.79999"
   cy="486.70001"
   r="45"
   inkscape:label="Button8" />
			<circle
   id="path943-4-7"
   class="st0"
   cx="367.79999"
   cy="486.70001"
   r="61" />
		</g>
		<circle
   id="path965-9"
   class="st0"
   cx="367.60001"
   cy="486.5"
   r="89" />
	</g>

   <path
   id="RightTrigger"
   inkscape:label="RightTrigger"
   class="st8"
   d="m 659.3,205.3 -2.9,26.6 c 50.1,-1.1 90.9,0.8 115.3,7.4 l -17.2,-68.1 c -2.67339,-9.73722 -10.4,-21.9 -21.1,-21.9 H 676 c -10.8,0 -12.3,17 -16.7,56 z"
   sodipodi:nodetypes="ccccssc" /><path
   id="LeftTrigger"
   inkscape:label="LeftTrigger"
   class="st8"
   d="m 325.9,149.3 h -57.4 c -10.8,0 -18.80852,13.69043 -21.1,21.9 l -17.2,68.2 c 24.4,-6.6 65.2,-8.5 115.3,-7.4 l -2.9,-26.7 c -4.5,-39 -5.9,-56 -16.7,-56 z"
   sodipodi:nodetypes="ssccccs"
   style="fill:none" />
	
		<path
   id="Button5"
   inkscape:label="Button5"
   class="st8"
   d="m 771.7,239.3 c -29.5,-9.6 -82,-8.1 -115.3,-7.4 -7.7,6.4 -18.6,28.3 -18.6,28.3 l 43.7,0.9 c 45.9,2.1 67.1,9.8 88.9,18.2 11.4,4.4 22.4,10 32.6,16.8 l 8.2,5.4 c -17.4,-35.6 -39.5,-62.2 -39.5,-62.2 z" />
	
		
	
		<path
   id="Button4"
   inkscape:label="Button4"
   class="st8"
   d="m 190.7,301.6 8.2,-5.4 c 10.2,-6.8 21.1,-12.4 32.6,-16.8 21.9,-8.4 43,-16.1 88.9,-18.2 l 43.7,-0.9 c 0,0 -10.9,-21.9 -18.6,-28.3 -33.3,-0.7 -85.8,-2.2 -115.3,7.4 0,-0.1 -22.1,26.5 -39.5,62.2 z" />
	
		
	<path
   id="D4"
   inkscape:label="D4"
   sodipodi:nodetypes="czzzcc"
   class="st5"
   d="m 359.6,627 c 0,0 -0.7,43.7 0,47.4 0.7,3.7 17.2,4 26,4 8.8,0 24.8,-0.6 26,-4 1.2,-3.4 0,-47.4 0,-47.4 -14.3,-8.7 -37.7,-8.5 -52,0 z" />
	<path
   id="D6"
   inkscape:label="D6"
   sodipodi:nodetypes="czzzcc"
   class="st5"
   d="m 360,575 c 0,0 -43.7,-0.7 -47.4,0 -3.7,0.7 -4,17.2 -4,26 0,8.8 0.6,24.8 4,26 3.4,1.2 47.4,0 47.4,0 8.7,-14.3 8.5,-37.7 0,-52 z" />
	<path
   id="D0"
   inkscape:label="D0"
   sodipodi:nodetypes="czzzcc"
   class="st5"
   d="m 412,575 c 0,0 0.7,-43.7 0,-47.4 -0.7,-3.7 -17.2,-4 -26,-4 -8.8,0 -24.8,0.6 -26,4 -1.2,3.4 0,47.4 0,47.4 14.3,8.7 37.7,8.5 52,0 z" />
	<path
   id="D1"
   inkscape:label="D1"
   sodipodi:nodetypes="cccc"
   class="st1"
   d="m 459,575 c -6.4,0.1 -47,0 -47,0 0,0 0.1,-40.9 0,-47 16.3,10.7 36.3,30.6 47,47 z" />
	<path
   id="D3"
   inkscape:label="D3"
   sodipodi:nodetypes="cccc"
   class="st1"
   d="m 412,674 c -0.1,-6.4 0,-47 0,-47 0,0 40.9,0.1 47,0 -10.7,16.3 -30.6,36.3 -47,47 z" />
	<path
   id="D5"
   inkscape:label="D5"
   sodipodi:nodetypes="cccc"
   class="st1"
   d="m 359.6,674 c 0.1,-6.4 0,-47 0,-47 0,0 -40.9,0.1 -47,0 10.7,16.3 30.6,36.3 47,47 z" />
	<path
   id="D7"
   inkscape:label="D7"
   sodipodi:nodetypes="cccc"
   class="st1"
   d="m 360,528 c 0.1,6.4 0,47 0,47 0,0 -40.9,-0.1 -47,0 10.7,-16.3 30.6,-36.3 47,-47 z" /><path
   id="RightTriggerClip"
   inkscape:label="RightTriggerClip"
   class="st8"
   d="M 818.38703,243.2612 822.80022,69.960586 C 791.00048,76.487026 668.50074,63.30552 617.58349,59.97139 L 605.147,226.85225 c 0,0 40.07928,4.76083 51.253,5.04775 33.3,-0.7 85.8,-2.2 115.3,7.4 12.58851,2.66333 14.85631,1.42117 46.68703,3.9612 z"
   style="fill:none;stroke:#ff0000;stroke-width:1;stroke-linecap:round;stroke-miterlimit:15.1181;stroke-dasharray:none;stroke-opacity:1"
   sodipodi:nodetypes="ccccccc" /><path
   id="LeftTriggerClip"
   inkscape:label="LeftTriggerClip"
   class="st8"
   d="M 183.51297,243.3612 179.09978,70.060582 c 31.79974,6.52644 154.29948,-6.655066 205.21673,-9.989196 L 396.753,226.95225 c 0,0 -40.07928,4.76083 -51.253,5.04775 -33.3,-0.7 -85.8,-2.2 -115.3,7.4 -12.58851,2.66333 -14.85631,1.42117 -46.68703,3.9612 z"
   style="fill:none;stroke:#ff0000;stroke-width:1;stroke-linecap:round;stroke-miterlimit:15.1181;stroke-dasharray:none;stroke-opacity:1"
   sodipodi:nodetypes="ccccccc" />
</g>
</svg>
